<svg width="27" height="38" viewBox="0 0 27 38" fill="none" xmlns="http://www.w3.org/2000/svg">
<path d="M15.8533 37.9998C15.8886 36.0918 15.924 34.4134 15.9593 32.9648C16.03 31.5161 16.1006 29.9968 16.1713 28.4068L1.43729 28.4068L0.96029 23.8488C3.18629 20.2801 5.25329 16.5524 7.16129 12.6658C9.06929 8.77909 10.8713 5.05142 12.5673 1.48276L23.0613 0.369754C22.9553 1.50042 22.867 2.71942 22.7963 4.02675C22.761 5.29875 22.7256 6.81809 22.6903 8.58476C22.6903 10.3161 22.6726 12.3831 22.6373 14.7858C22.6373 17.1531 22.6373 19.9974 22.6373 23.3188L26.6123 23.3188L25.7643 28.4068L22.6373 28.4068C22.6373 30.2088 22.6373 31.8694 22.6373 33.3888C22.6726 34.8728 22.7256 36.4098 22.7963 37.9998L15.8533 37.9998ZM16.2773 23.3188C16.2773 21.1988 16.2773 19.3261 16.2773 17.7008C16.2773 16.0401 16.2596 14.5208 16.2243 13.1428C16.2243 11.7648 16.2066 10.4928 16.1713 9.32676C16.1713 8.12542 16.1536 6.95942 16.1183 5.82875C14.4576 8.58475 12.8676 11.4114 11.3483 14.3088C9.82896 17.2061 8.32729 20.2094 6.84329 23.3188L16.2773 23.3188Z" fill="white"/>
</svg>
