<svg width="23" height="39" viewBox="0 0 23 39" fill="none" xmlns="http://www.w3.org/2000/svg">
<path d="M22.2366 26.4988C22.2366 28.8308 21.9539 30.7741 21.3886 32.3288C20.8586 33.8834 20.0989 35.1378 19.1096 36.0918C18.1202 37.0104 16.9366 37.6641 15.5586 38.0528C14.1806 38.4414 12.6436 38.6358 10.9476 38.6358C9.7109 38.6358 8.4389 38.5121 7.13157 38.2648C5.85957 38.0174 4.69357 37.4874 3.63357 36.6748C2.57357 35.8621 1.7079 34.7138 1.03657 33.2298C0.365234 31.7104 0.0295674 29.6788 0.0295674 27.1348L6.12457 26.4458C6.12457 29.3078 6.51323 31.3394 7.29057 32.5408C8.10323 33.7068 9.37523 34.2898 11.1066 34.2898C12.6612 34.2898 13.7389 33.6891 14.3396 32.4878C14.9756 31.2864 15.2936 29.3078 15.2936 26.5518C15.2936 23.4424 14.9226 21.1988 14.1806 19.8208C13.4386 18.4428 12.2372 17.7538 10.5766 17.7538C9.48123 17.7538 8.63323 17.9481 8.03257 18.3368C7.4319 18.7254 6.93723 19.1671 6.54857 19.6618L1.03657 19.9798C1.1779 18.1778 1.26623 16.1461 1.30157 13.8848C1.37223 11.6234 1.40757 9.53875 1.40757 7.63076C1.40757 6.28809 1.3899 5.08676 1.35457 4.02675C1.35457 2.93142 1.3369 1.88909 1.30157 0.899753L20.6466 0.899753L20.6466 5.72275L7.34357 5.72275C7.30823 6.42942 7.2729 7.08309 7.23757 7.68375C7.20223 8.24909 7.1669 8.86742 7.13157 9.53876C7.13157 10.1748 7.1139 10.9344 7.07857 11.8178C7.07857 12.6658 7.07857 13.7434 7.07857 15.0508C7.6439 14.7681 8.29757 14.5384 9.03957 14.3618C9.8169 14.1498 10.7709 14.0438 11.9016 14.0438C15.1876 14.0438 17.7316 15.0508 19.5336 17.0648C21.3356 19.0788 22.2366 22.2234 22.2366 26.4988Z" fill="white"/>
</svg>
