<svg width="580" height="21" viewBox="0 0 580 21" fill="none" xmlns="http://www.w3.org/2000/svg">
<path d="M16.0488 17.1C16.2808 17.7767 16.5031 18.2697 16.7158 18.579C16.9284 18.869 17.1798 19.0623 17.4698 19.159C17.7791 19.2363 18.1851 19.2943 18.6878 19.333V20H11.7568V19.333C12.4141 19.2943 12.8974 19.2267 13.2068 19.13C13.5354 19.0333 13.7191 18.8303 13.7578 18.521C13.7964 18.2117 13.6998 17.738 13.4678 17.1L11.8148 12.112C11.7181 12.2087 11.5731 12.2763 11.3798 12.315C11.1864 12.3343 10.9834 12.344 10.7708 12.344H6.97176C6.54642 12.344 6.22742 12.3923 6.01476 12.489C5.80209 12.5857 5.61842 12.8467 5.46376 13.272L4.10076 17.1C3.84942 17.8347 3.84942 18.3857 4.10076 18.753C4.37142 19.101 5.12542 19.2943 6.36276 19.333V20H0.359758V19.333C0.978425 19.2943 1.46176 19.101 1.80976 18.753C2.17709 18.3857 2.49609 17.8347 2.76676 17.1L7.89976 3.006C8.09309 2.50333 8.27676 2.01033 8.45076 1.527C8.62476 1.04367 8.77943 0.550665 8.91476 0.0479993H10.3358C10.4711 0.550665 10.6161 1.04367 10.7708 1.527C10.9448 2.01033 11.1284 2.50333 11.3218 3.006L16.0488 17.1ZM10.8288 11.3C11.0801 11.3 11.2541 11.271 11.3508 11.213C11.4474 11.1357 11.4474 10.981 11.3508 10.749L8.97276 3.702H8.91476L6.13076 11.387C6.22742 11.3483 6.34342 11.329 6.47876 11.329C6.61409 11.3097 6.76876 11.3 6.94276 11.3H10.8288ZM34.08 20.232C33.79 19.7873 33.471 19.3427 33.123 18.898C32.7943 18.4533 32.3206 17.912 31.702 17.274L23.785 8.98H23.727V17.1C23.727 17.8153 23.901 18.3567 24.249 18.724C24.6163 19.0913 25.3703 19.2943 26.511 19.333V20H20.682V19.333C21.32 19.2943 21.7646 19.0913 22.016 18.724C22.2866 18.3567 22.422 17.8153 22.422 17.1V7.675C22.422 6.921 22.2093 6.37 21.784 6.022C21.378 5.674 20.769 5.48067 19.957 5.442V4.775H23.611C23.901 5.25833 24.2103 5.72233 24.539 6.167C24.8676 6.59233 25.2446 7.02733 25.67 7.472L33.674 15.795H33.732V7.675C33.732 6.95967 33.5676 6.41833 33.239 6.051C32.9296 5.68367 32.2723 5.48067 31.267 5.442V4.775H36.806V5.442C36.168 5.48067 35.7136 5.68367 35.443 6.051C35.1916 6.41833 35.066 6.95967 35.066 7.675V17.1C35.066 17.6413 35.066 18.1633 35.066 18.666C35.0853 19.1493 35.1046 19.6713 35.124 20.232H34.08ZM48.5195 20V19.333C48.9448 19.3137 49.2831 19.2557 49.5345 19.159C49.7858 19.0623 49.9695 18.8593 50.0855 18.55C50.2015 18.2407 50.2595 17.7573 50.2595 17.1V7.675C50.2595 6.99833 50.1918 6.515 50.0565 6.225C49.9211 5.91567 49.6795 5.71267 49.3315 5.616C48.9835 5.51933 48.4711 5.46133 47.7945 5.442V4.775H59.4815V8.284H58.8145C58.7951 7.74267 58.6985 7.298 58.5245 6.95C58.3505 6.58267 58.0315 6.30233 57.5675 6.109C57.1228 5.91567 56.4558 5.819 55.5665 5.819H53.8845C53.4785 5.819 53.1595 5.91567 52.9275 6.109C52.7148 6.30233 52.6085 6.82433 52.6085 7.675V11.358C52.7631 11.242 52.9468 11.1647 53.1595 11.126C53.3915 11.0873 53.6621 11.068 53.9715 11.068H56.3785C56.9391 11.068 57.3645 10.952 57.6545 10.72C57.9638 10.488 58.1281 10.053 58.1475 9.415H58.8145V13.765H58.1475C58.1281 13.127 57.9928 12.692 57.7415 12.46C57.5095 12.228 57.0551 12.112 56.3785 12.112H54.0295C53.5075 12.112 53.1401 12.199 52.9275 12.373C52.7148 12.547 52.6085 12.8853 52.6085 13.388V17.1C52.6085 17.9313 52.7535 18.4533 53.0435 18.666C53.3528 18.8593 53.9425 18.956 54.8125 18.956H56.8715C58.1281 18.956 59.0175 18.6177 59.5395 17.941C60.0615 17.2643 60.3611 16.4523 60.4385 15.505H61.1055L60.8735 20H48.5195ZM62.125 20V19.333C62.6857 19.2943 63.14 19.0913 63.488 18.724C63.836 18.3567 64.2517 17.8153 64.735 17.1L67.693 12.663C67.9057 12.373 68.012 12.1217 68.012 11.909C68.0313 11.677 67.954 11.4063 67.78 11.097L65.663 7.675C65.2763 7.01767 64.9477 6.53433 64.677 6.225C64.4063 5.91567 64.1453 5.71267 63.894 5.616C63.6427 5.51933 63.314 5.46133 62.908 5.442V4.775H69.056V5.442C68.36 5.48067 67.925 5.645 67.751 5.935C67.577 6.225 67.7607 6.805 68.302 7.675L69.868 10.169H69.926L71.753 7.675C72.7777 6.26367 72.4973 5.51933 70.912 5.442V4.775H75.755V5.442C75.2717 5.48067 74.856 5.68367 74.508 6.051C74.16 6.399 73.7153 6.94033 73.174 7.675L71.144 10.401C70.7767 10.9037 70.7573 11.445 71.086 12.025L74.131 17.1C74.537 17.7573 74.856 18.2407 75.088 18.55C75.3393 18.8593 75.5713 19.0623 75.784 19.159C75.9967 19.2363 76.2577 19.2943 76.567 19.333V20H70.651V19.333C71.3857 19.2943 71.84 19.1493 72.014 18.898C72.2073 18.6467 72.0333 18.0473 71.492 17.1L69.027 12.953H68.969L66.185 17.1C65.7017 17.8153 65.5953 18.3567 65.866 18.724C66.1367 19.0913 66.7167 19.2943 67.606 19.333V20H62.125ZM88.6265 17.1C88.8778 17.796 89.1001 18.2987 89.2935 18.608C89.5061 18.898 89.7381 19.0817 89.9895 19.159C90.2408 19.2363 90.5598 19.2943 90.9465 19.333V20H84.7115V19.333C85.2721 19.2943 85.6975 19.2363 85.9875 19.159C86.2775 19.0623 86.4321 18.8593 86.4515 18.55C86.4901 18.2407 86.3838 17.7573 86.1325 17.1L85.0595 14.026C84.9628 14.1227 84.8178 14.1903 84.6245 14.229C84.4311 14.2483 84.2281 14.258 84.0155 14.258H81.3185C80.9125 14.258 80.6031 14.3063 80.3905 14.403C80.1778 14.4997 80.0038 14.7317 79.8685 15.099L79.0855 17.1C78.7955 17.8733 78.7761 18.434 79.0275 18.782C79.2981 19.1107 79.9748 19.2943 81.0575 19.333V20H75.6635V19.333C76.1275 19.2943 76.5238 19.101 76.8525 18.753C77.1811 18.405 77.4905 17.854 77.7805 17.1L81.7825 7.037C81.9758 6.55367 82.1498 6.07033 82.3045 5.587C82.4785 5.10367 82.6331 4.61067 82.7685 4.108H84.0735C84.2088 4.61067 84.3635 5.10367 84.5375 5.587C84.7115 6.07033 84.8758 6.55367 85.0305 7.037L88.6265 17.1ZM83.9865 13.214C84.2765 13.214 84.4601 13.1657 84.5375 13.069C84.6148 12.953 84.5858 12.7307 84.4505 12.402L82.7975 7.704H82.7395L80.5645 13.33C80.6611 13.272 80.7675 13.243 80.8835 13.243C81.0188 13.2237 81.1638 13.214 81.3185 13.214H83.9865ZM104.41 15.476H105.077L104.845 20H92.8974V19.333C93.3227 19.3137 93.6611 19.2557 93.9124 19.159C94.1637 19.0623 94.3474 18.8593 94.4634 18.55C94.5794 18.2407 94.6374 17.7573 94.6374 17.1V7.675C94.6374 6.99833 94.5697 6.515 94.4344 6.225C94.2991 5.91567 94.0574 5.71267 93.7094 5.616C93.3614 5.51933 92.8491 5.46133 92.1724 5.442V4.775H98.7264V5.442C98.3011 5.46133 97.9627 5.51933 97.7114 5.616C97.4601 5.71267 97.2764 5.91567 97.1604 6.225C97.0444 6.515 96.9864 6.99833 96.9864 7.675V17.1C96.9864 17.9313 97.1314 18.4533 97.4214 18.666C97.7307 18.8593 98.3204 18.956 99.1904 18.956H101.133C102.274 18.956 103.086 18.6177 103.569 17.941C104.053 17.245 104.333 16.4233 104.41 15.476ZM104.26 4.775H117.774V9.299H117.107C117.087 8.62233 116.991 8.023 116.817 7.501C116.643 6.979 116.333 6.573 115.889 6.283C115.444 5.97367 114.777 5.819 113.888 5.819H112.206V17.1C112.206 17.7573 112.273 18.2407 112.409 18.55C112.544 18.8593 112.786 19.0623 113.134 19.159C113.501 19.2557 114.013 19.3137 114.671 19.333V20H108.117V19.333C108.542 19.3137 108.88 19.2557 109.132 19.159C109.383 19.0623 109.567 18.8593 109.683 18.55C109.799 18.2407 109.857 17.7573 109.857 17.1V5.819H108.117C107.247 5.819 106.589 5.97367 106.145 6.283C105.7 6.573 105.391 6.979 105.217 7.501C105.062 8.023 104.965 8.62233 104.927 9.299H104.26V4.775ZM139.817 10.894H144.486V11.561C143.5 11.5803 142.853 11.6673 142.543 11.822C142.253 11.9767 142.07 12.286 141.992 12.75C141.818 14.026 141.461 15.1957 140.919 16.259C141.132 16.5683 141.345 16.897 141.557 17.245C142.176 18.231 142.775 18.8497 143.355 19.101C143.955 19.3523 144.525 19.478 145.066 19.478V20C144.834 20.0773 144.612 20.1257 144.399 20.145C144.206 20.1837 144.003 20.203 143.79 20.203C141.954 20.203 140.542 19.5167 139.556 18.144C138.86 18.8593 138.048 19.42 137.12 19.826C136.212 20.232 135.216 20.435 134.133 20.435C133.186 20.435 132.326 20.261 131.552 19.913C130.798 19.565 130.189 19.072 129.725 18.434C129.281 17.796 129.058 17.0517 129.058 16.201C129.058 15.3117 129.252 14.5577 129.638 13.939C130.044 13.3203 130.557 12.7983 131.175 12.373C131.813 11.9283 132.461 11.5127 133.118 11.126C132.538 10.6233 132.084 10.1207 131.755 9.618C131.427 9.096 131.262 8.44833 131.262 7.675C131.262 6.979 131.446 6.37967 131.813 5.877C132.2 5.37433 132.693 4.98767 133.292 4.717C133.892 4.44633 134.53 4.311 135.206 4.311C135.786 4.311 136.357 4.427 136.917 4.659C137.478 4.87167 137.932 5.20033 138.28 5.645C138.648 6.07033 138.831 6.61167 138.831 7.269C138.831 8.06167 138.522 8.69 137.903 9.154C137.285 9.618 136.569 10.0627 135.757 10.488C136.357 10.9907 137.033 11.619 137.787 12.373C138.541 13.127 139.363 14.113 140.252 15.331C140.678 14.519 140.939 13.6297 141.035 12.663C141.093 12.2183 141.006 11.9283 140.774 11.793C140.542 11.6577 140.223 11.5803 139.817 11.561V10.894ZM133.234 7.153C133.234 7.77167 133.389 8.27433 133.698 8.661C134.027 9.02833 134.491 9.45367 135.09 9.937C135.612 9.56967 136.038 9.17333 136.366 8.748C136.714 8.32267 136.888 7.81033 136.888 7.211C136.888 6.631 136.734 6.15733 136.424 5.79C136.134 5.40333 135.68 5.21 135.061 5.21C134.501 5.21 134.056 5.39367 133.727 5.761C133.399 6.12833 133.234 6.59233 133.234 7.153ZM131.262 15.592C131.262 16.5393 131.601 17.3127 132.277 17.912C132.954 18.5113 133.814 18.811 134.858 18.811C136.366 18.811 137.7 18.26 138.86 17.158C137.932 15.8433 137.043 14.78 136.192 13.968C135.361 13.1367 134.607 12.431 133.93 11.851C133.853 11.7737 133.795 11.7253 133.756 11.706C133.08 12.17 132.5 12.7113 132.016 13.33C131.533 13.9487 131.282 14.7027 131.262 15.592ZM167.225 15.476H167.892L167.66 20H155.712V19.333C156.137 19.3137 156.476 19.2557 156.727 19.159C156.978 19.0623 157.162 18.8593 157.278 18.55C157.394 18.2407 157.452 17.7573 157.452 17.1V7.675C157.452 6.99833 157.384 6.515 157.249 6.225C157.114 5.91567 156.872 5.71267 156.524 5.616C156.176 5.51933 155.664 5.46133 154.987 5.442V4.775H161.541V5.442C161.116 5.46133 160.777 5.51933 160.526 5.616C160.275 5.71267 160.091 5.91567 159.975 6.225C159.859 6.515 159.801 6.99833 159.801 7.675V17.1C159.801 17.9313 159.946 18.4533 160.236 18.666C160.545 18.8593 161.135 18.956 162.005 18.956H163.948C165.089 18.956 165.901 18.6177 166.384 17.941C166.867 17.245 167.148 16.4233 167.225 15.476ZM174.558 17.1C174.558 17.7573 174.626 18.2407 174.761 18.55C174.897 18.8593 175.138 19.0623 175.486 19.159C175.854 19.2557 176.366 19.3137 177.023 19.333V20H170.469V19.333C170.895 19.3137 171.233 19.2557 171.484 19.159C171.736 19.0623 171.919 18.8593 172.035 18.55C172.151 18.2407 172.209 17.7573 172.209 17.1V7.675C172.209 6.99833 172.142 6.515 172.006 6.225C171.871 5.91567 171.629 5.71267 171.281 5.616C170.933 5.51933 170.421 5.46133 169.744 5.442V4.775H176.298V5.442C175.873 5.46133 175.535 5.51933 175.283 5.616C175.032 5.71267 174.848 5.91567 174.732 6.225C174.616 6.515 174.558 6.99833 174.558 7.675V17.1ZM184.761 20.232C184.645 19.7293 184.529 19.304 184.413 18.956C184.297 18.608 184.162 18.1923 184.007 17.709L180.353 7.675C180.121 6.979 179.909 6.486 179.715 6.196C179.522 5.88667 179.319 5.69333 179.106 5.616C178.913 5.51933 178.662 5.46133 178.352 5.442V4.775H184.007V5.442C183.505 5.46133 183.137 5.529 182.905 5.645C182.693 5.74167 182.596 5.94467 182.615 6.254C182.635 6.544 182.751 7.01767 182.963 7.675L185.979 16.346H186.037L189.285 7.675C189.575 6.94033 189.595 6.399 189.343 6.051C189.092 5.68367 188.483 5.48067 187.516 5.442V4.775H192.533V5.442C192.166 5.48067 191.828 5.674 191.518 6.022C191.228 6.35067 190.938 6.90167 190.648 7.675L186.82 17.709C186.627 18.2117 186.482 18.637 186.385 18.985C186.289 19.3137 186.182 19.7293 186.066 20.232H184.761ZM194.567 20V19.333C194.993 19.3137 195.331 19.2557 195.582 19.159C195.834 19.0623 196.017 18.8593 196.133 18.55C196.249 18.2407 196.307 17.7573 196.307 17.1V7.675C196.307 6.99833 196.24 6.515 196.104 6.225C195.969 5.91567 195.727 5.71267 195.379 5.616C195.031 5.51933 194.519 5.46133 193.842 5.442V4.775H205.529V8.284H204.862C204.843 7.74267 204.746 7.298 204.572 6.95C204.398 6.58267 204.079 6.30233 203.615 6.109C203.171 5.91567 202.504 5.819 201.614 5.819H199.932C199.526 5.819 199.207 5.91567 198.975 6.109C198.763 6.30233 198.656 6.82433 198.656 7.675V11.358C198.811 11.242 198.995 11.1647 199.207 11.126C199.439 11.0873 199.71 11.068 200.019 11.068H202.426C202.987 11.068 203.412 10.952 203.702 10.72C204.012 10.488 204.176 10.053 204.195 9.415H204.862V13.765H204.195C204.176 13.127 204.041 12.692 203.789 12.46C203.557 12.228 203.103 12.112 202.426 12.112H200.077C199.555 12.112 199.188 12.199 198.975 12.373C198.763 12.547 198.656 12.8853 198.656 13.388V17.1C198.656 17.9313 198.801 18.4533 199.091 18.666C199.401 18.8593 199.99 18.956 200.86 18.956H202.919C204.176 18.956 205.065 18.6177 205.587 17.941C206.109 17.2643 206.409 16.4523 206.486 15.505H207.153L206.921 20H194.567ZM218.668 20V19.333C219.093 19.3137 219.432 19.2557 219.683 19.159C219.934 19.0623 220.118 18.8593 220.234 18.55C220.35 18.2407 220.408 17.7573 220.408 17.1V7.675C220.408 6.99833 220.34 6.515 220.205 6.225C220.07 5.91567 219.828 5.71267 219.48 5.616C219.132 5.51933 218.62 5.46133 217.943 5.442V4.775H220.408C221.607 4.775 222.554 4.75567 223.25 4.717C223.965 4.659 224.603 4.63 225.164 4.63C227.233 4.63 228.712 4.96833 229.601 5.645C230.51 6.32167 230.964 7.17233 230.964 8.197C230.964 8.719 230.838 9.27967 230.587 9.879C230.336 10.459 229.92 10.9907 229.34 11.474C228.76 11.9573 227.977 12.3247 226.991 12.576C226.005 12.808 224.787 12.8563 223.337 12.721V11.851C224.381 11.9477 225.232 11.8993 225.889 11.706C226.566 11.5127 227.088 11.2323 227.455 10.865C227.822 10.4977 228.074 10.1013 228.209 9.676C228.344 9.23133 228.412 8.806 228.412 8.4C228.412 7.37533 228.093 6.66967 227.455 6.283C226.817 5.877 225.986 5.674 224.961 5.674C224.207 5.674 223.646 5.79 223.279 6.022C222.931 6.23467 222.757 6.78567 222.757 7.675V17.1C222.757 17.7573 222.825 18.2407 222.96 18.55C223.115 18.8593 223.405 19.0623 223.83 19.159C224.275 19.2557 224.922 19.3137 225.773 19.333V20H218.668ZM247.447 20.174C246.655 20.174 246.007 20.0677 245.504 19.855C245.002 19.6423 244.576 19.362 244.228 19.014C243.9 18.666 243.581 18.289 243.271 17.883L239.646 13.156C239.434 12.866 239.25 12.6727 239.095 12.576C238.96 12.4793 238.786 12.4213 238.573 12.402V11.532C239.753 11.6287 240.7 11.5417 241.415 11.271C242.15 11.0003 242.682 10.604 243.01 10.082C243.339 9.54067 243.503 8.951 243.503 8.313C243.503 7.36567 243.204 6.689 242.604 6.283C242.005 5.877 241.203 5.674 240.197 5.674C239.443 5.674 238.883 5.79 238.515 6.022C238.167 6.23467 237.993 6.78567 237.993 7.675V17.1C237.993 17.7573 238.061 18.2407 238.196 18.55C238.332 18.8593 238.573 19.0623 238.921 19.159C239.289 19.2557 239.801 19.3137 240.458 19.333V20H233.904V19.333C234.33 19.3137 234.668 19.2557 234.919 19.159C235.171 19.0623 235.354 18.8593 235.47 18.55C235.586 18.2407 235.644 17.7573 235.644 17.1V7.675C235.644 6.99833 235.577 6.515 235.441 6.225C235.306 5.91567 235.064 5.71267 234.716 5.616C234.368 5.51933 233.856 5.46133 233.179 5.442V4.775H235.644C236.843 4.775 237.79 4.75567 238.486 4.717C239.182 4.659 239.82 4.63 240.4 4.63C242.469 4.63 243.929 4.96833 244.779 5.645C245.63 6.32167 246.055 7.17233 246.055 8.197C246.055 9.08633 245.727 9.89833 245.069 10.633C244.431 11.3677 243.378 11.8897 241.908 12.199V12.257L245.533 17.013C246.055 17.6897 246.481 18.1923 246.809 18.521C247.157 18.8497 247.486 19.072 247.795 19.188C248.124 19.2847 248.501 19.333 248.926 19.333V20C248.675 20.0773 248.424 20.1257 248.172 20.145C247.921 20.1643 247.679 20.174 247.447 20.174ZM257.728 4.34C259.333 4.34 260.715 4.717 261.875 5.471C263.055 6.225 263.963 7.22067 264.601 8.458C265.259 9.676 265.587 10.9907 265.587 12.402C265.587 13.8327 265.249 15.157 264.572 16.375C263.915 17.593 262.997 18.579 261.817 19.333C260.638 20.0677 259.256 20.435 257.67 20.435C256.085 20.435 254.703 20.058 253.523 19.304C252.363 18.55 251.455 17.564 250.797 16.346C250.159 15.1087 249.84 13.7843 249.84 12.373C249.84 10.9423 250.169 9.618 250.826 8.4C251.484 7.182 252.402 6.20567 253.581 5.471C254.78 4.717 256.162 4.34 257.728 4.34ZM258.076 19.275C259.256 19.275 260.213 18.9947 260.947 18.434C261.682 17.854 262.223 17.0903 262.571 16.143C262.939 15.1763 263.122 14.1227 263.122 12.982C263.122 11.6093 262.89 10.3623 262.426 9.241C261.982 8.10033 261.334 7.19167 260.483 6.515C259.633 5.83833 258.589 5.5 257.351 5.5C256.172 5.5 255.205 5.79 254.451 6.37C253.717 6.93067 253.175 7.68467 252.827 8.632C252.479 9.57933 252.305 10.633 252.305 11.793C252.305 13.1657 252.528 14.4223 252.972 15.563C253.436 16.6843 254.094 17.5833 254.944 18.26C255.814 18.9367 256.858 19.275 258.076 19.275ZM269.078 20V19.333C269.503 19.3137 269.842 19.2557 270.093 19.159C270.344 19.0623 270.528 18.8593 270.644 18.55C270.76 18.2407 270.818 17.7573 270.818 17.1V7.675C270.818 6.99833 270.75 6.515 270.615 6.225C270.48 5.91567 270.238 5.71267 269.89 5.616C269.542 5.51933 269.03 5.46133 268.353 5.442V4.775H270.818C271.727 4.775 272.684 4.75567 273.689 4.717C274.694 4.659 275.622 4.63 276.473 4.63C278.136 4.63 279.557 4.949 280.736 5.587C281.915 6.20567 282.814 7.04667 283.433 8.11C284.071 9.17333 284.39 10.3623 284.39 11.677C284.39 12.7983 284.177 13.8617 283.752 14.867C283.346 15.8723 282.766 16.7617 282.012 17.535C281.277 18.3083 280.407 18.9173 279.402 19.362C278.416 19.7873 277.343 20 276.183 20H269.078ZM275.835 18.956C277.246 18.956 278.387 18.6273 279.257 17.97C280.127 17.3127 280.765 16.4717 281.171 15.447C281.577 14.403 281.78 13.301 281.78 12.141C281.78 10.1303 281.258 8.55467 280.214 7.414C279.17 6.254 277.749 5.674 275.951 5.674C274.907 5.674 274.182 5.79 273.776 6.022C273.37 6.254 273.167 6.805 273.167 7.675V17.1C273.167 17.9313 273.37 18.4533 273.776 18.666C274.182 18.8593 274.868 18.956 275.835 18.956ZM292.987 20.435C291.633 20.435 290.58 20.0773 289.826 19.362C289.072 18.6467 288.695 17.5157 288.695 15.969V7.675C288.695 6.99833 288.627 6.515 288.492 6.225C288.376 5.91567 288.163 5.71267 287.854 5.616C287.544 5.51933 287.1 5.46133 286.52 5.442V4.775H292.784V5.442C292.358 5.46133 292.02 5.51933 291.769 5.616C291.517 5.71267 291.334 5.91567 291.218 6.225C291.102 6.515 291.044 6.99833 291.044 7.675V15.244C291.044 16.23 291.218 17.0517 291.566 17.709C291.914 18.3663 292.59 18.695 293.596 18.695C294.446 18.695 295.268 18.4437 296.061 17.941C296.853 17.4383 297.501 16.6843 298.004 15.679C298.506 14.6543 298.758 13.3783 298.758 11.851V7.675C298.758 6.99833 298.69 6.515 298.555 6.225C298.419 5.91567 298.178 5.71267 297.83 5.616C297.482 5.51933 296.969 5.46133 296.293 5.442V4.775H302.731V5.442C302.305 5.46133 301.967 5.51933 301.716 5.616C301.464 5.71267 301.281 5.91567 301.165 6.225C301.049 6.515 300.991 6.99833 300.991 7.675V17.129C300.991 17.7863 301.049 18.2697 301.165 18.579C301.281 18.869 301.474 19.0623 301.745 19.159C302.015 19.2557 302.383 19.3137 302.847 19.333V20H299.135C299.019 19.6907 298.932 19.3233 298.874 18.898C298.816 18.4533 298.787 17.854 298.787 17.1V16.085H298.729C298.187 17.3417 297.569 18.2793 296.873 18.898C296.196 19.5167 295.519 19.9227 294.843 20.116C294.166 20.3287 293.547 20.435 292.987 20.435ZM313.103 20.435C311.711 20.435 310.503 20.203 309.478 19.739C308.454 19.275 307.613 18.666 306.955 17.912C306.298 17.1387 305.805 16.288 305.476 15.36C305.167 14.4127 305.012 13.4653 305.012 12.518C305.012 11.0293 305.37 9.66633 306.085 8.429C306.82 7.19167 307.845 6.20567 309.159 5.471C310.474 4.717 312.011 4.34 313.77 4.34C314.737 4.34 315.675 4.44633 316.583 4.659C317.492 4.87167 318.275 5.123 318.932 5.413V9.154H318.265C318.072 7.878 317.502 6.95 316.554 6.37C315.626 5.79 314.553 5.5 313.335 5.5C311.518 5.5 310.107 6.08 309.101 7.24C308.115 8.38067 307.622 9.94667 307.622 11.938C307.622 12.8273 307.729 13.707 307.941 14.577C308.154 15.447 308.483 16.2397 308.927 16.955C309.391 17.651 309.971 18.2117 310.667 18.637C311.383 19.0623 312.233 19.275 313.219 19.275C314.147 19.275 315.008 19.0817 315.8 18.695C316.593 18.3083 317.26 17.7573 317.801 17.042C318.362 16.3267 318.729 15.476 318.903 14.49H319.57L319.396 17.796C318.797 18.5887 317.946 19.2267 316.844 19.71C315.762 20.1933 314.515 20.435 313.103 20.435ZM321.448 4.775H334.962V9.299H334.295C334.276 8.62233 334.179 8.023 334.005 7.501C333.831 6.979 333.522 6.573 333.077 6.283C332.633 5.97367 331.966 5.819 331.076 5.819H329.394V17.1C329.394 17.7573 329.462 18.2407 329.597 18.55C329.733 18.8593 329.974 19.0623 330.322 19.159C330.69 19.2557 331.202 19.3137 331.859 19.333V20H325.305V19.333C325.731 19.3137 326.069 19.2557 326.32 19.159C326.572 19.0623 326.755 18.8593 326.871 18.55C326.987 18.2407 327.045 17.7573 327.045 17.1V5.819H325.305C324.435 5.819 323.778 5.97367 323.333 6.283C322.889 6.573 322.579 6.979 322.405 7.501C322.251 8.023 322.154 8.62233 322.115 9.299H321.448V4.775ZM342.045 17.1C342.045 17.7573 342.112 18.2407 342.248 18.55C342.383 18.8593 342.625 19.0623 342.973 19.159C343.34 19.2557 343.852 19.3137 344.51 19.333V20H337.956V19.333C338.381 19.3137 338.719 19.2557 338.971 19.159C339.222 19.0623 339.406 18.8593 339.522 18.55C339.638 18.2407 339.696 17.7573 339.696 17.1V7.675C339.696 6.99833 339.628 6.515 339.493 6.225C339.357 5.91567 339.116 5.71267 338.768 5.616C338.42 5.51933 337.907 5.46133 337.231 5.442V4.775H343.785V5.442C343.359 5.46133 343.021 5.51933 342.77 5.616C342.518 5.71267 342.335 5.91567 342.219 6.225C342.103 6.515 342.045 6.99833 342.045 7.675V17.1ZM355.264 4.34C356.868 4.34 358.251 4.717 359.411 5.471C360.59 6.225 361.499 7.22067 362.137 8.458C362.794 9.676 363.123 10.9907 363.123 12.402C363.123 13.8327 362.784 15.157 362.108 16.375C361.45 17.593 360.532 18.579 359.353 19.333C358.173 20.0677 356.791 20.435 355.206 20.435C353.62 20.435 352.238 20.058 351.059 19.304C349.899 18.55 348.99 17.564 348.333 16.346C347.695 15.1087 347.376 13.7843 347.376 12.373C347.376 10.9423 347.704 9.618 348.362 8.4C349.019 7.182 349.937 6.20567 351.117 5.471C352.315 4.717 353.698 4.34 355.264 4.34ZM355.612 19.275C356.791 19.275 357.748 18.9947 358.483 18.434C359.217 17.854 359.759 17.0903 360.107 16.143C360.474 15.1763 360.658 14.1227 360.658 12.982C360.658 11.6093 360.426 10.3623 359.962 9.241C359.517 8.10033 358.869 7.19167 358.019 6.515C357.168 5.83833 356.124 5.5 354.887 5.5C353.707 5.5 352.741 5.79 351.987 6.37C351.252 6.93067 350.711 7.68467 350.363 8.632C350.015 9.57933 349.841 10.633 349.841 11.793C349.841 13.1657 350.063 14.4223 350.508 15.563C350.972 16.6843 351.629 17.5833 352.48 18.26C353.35 18.9367 354.394 19.275 355.612 19.275ZM380.069 20.232C379.779 19.7873 379.46 19.3427 379.112 18.898C378.784 18.4533 378.31 17.912 377.691 17.274L369.774 8.98H369.716V17.1C369.716 17.8153 369.89 18.3567 370.238 18.724C370.606 19.0913 371.36 19.2943 372.5 19.333V20H366.671V19.333C367.309 19.2943 367.754 19.0913 368.005 18.724C368.276 18.3567 368.411 17.8153 368.411 17.1V7.675C368.411 6.921 368.199 6.37 367.773 6.022C367.367 5.674 366.758 5.48067 365.946 5.442V4.775H369.6C369.89 5.25833 370.2 5.72233 370.528 6.167C370.857 6.59233 371.234 7.02733 371.659 7.472L379.663 15.795H379.721V7.675C379.721 6.95967 379.557 6.41833 379.228 6.051C378.919 5.68367 378.262 5.48067 377.256 5.442V4.775H382.795V5.442C382.157 5.48067 381.703 5.68367 381.432 6.051C381.181 6.41833 381.055 6.95967 381.055 7.675V17.1C381.055 17.6413 381.055 18.1633 381.055 18.666C381.075 19.1493 381.094 19.6713 381.113 20.232H380.069ZM402.426 20.435C401.034 20.435 399.825 20.203 398.801 19.739C397.776 19.275 396.935 18.666 396.278 17.912C395.62 17.1387 395.127 16.288 394.799 15.36C394.489 14.4127 394.335 13.4653 394.335 12.518C394.335 11.0293 394.692 9.66633 395.408 8.429C396.142 7.19167 397.167 6.20567 398.482 5.471C399.796 4.717 401.333 4.34 403.093 4.34C404.059 4.34 404.997 4.44633 405.906 4.659C406.814 4.87167 407.597 5.123 408.255 5.413V9.154H407.588C407.394 7.878 406.824 6.95 405.877 6.37C404.949 5.79 403.876 5.5 402.658 5.5C400.84 5.5 399.429 6.08 398.424 7.24C397.438 8.38067 396.945 9.94667 396.945 11.938C396.945 12.8273 397.051 13.707 397.264 14.577C397.476 15.447 397.805 16.2397 398.25 16.955C398.714 17.651 399.294 18.2117 399.99 18.637C400.705 19.0623 401.556 19.275 402.542 19.275C403.47 19.275 404.33 19.0817 405.123 18.695C405.915 18.3083 406.582 17.7573 407.124 17.042C407.684 16.3267 408.052 15.476 408.226 14.49H408.893L408.719 17.796C408.119 18.5887 407.269 19.2267 406.167 19.71C405.084 20.1933 403.837 20.435 402.426 20.435ZM419.551 4.34C421.155 4.34 422.538 4.717 423.698 5.471C424.877 6.225 425.786 7.22067 426.424 8.458C427.081 9.676 427.41 10.9907 427.41 12.402C427.41 13.8327 427.071 15.157 426.395 16.375C425.737 17.593 424.819 18.579 423.64 19.333C422.46 20.0677 421.078 20.435 419.493 20.435C417.907 20.435 416.525 20.058 415.346 19.304C414.186 18.55 413.277 17.564 412.62 16.346C411.982 15.1087 411.663 13.7843 411.663 12.373C411.663 10.9423 411.991 9.618 412.649 8.4C413.306 7.182 414.224 6.20567 415.404 5.471C416.602 4.717 417.985 4.34 419.551 4.34ZM419.899 19.275C421.078 19.275 422.035 18.9947 422.77 18.434C423.504 17.854 424.046 17.0903 424.394 16.143C424.761 15.1763 424.945 14.1227 424.945 12.982C424.945 11.6093 424.713 10.3623 424.249 9.241C423.804 8.10033 423.156 7.19167 422.306 6.515C421.455 5.83833 420.411 5.5 419.174 5.5C417.994 5.5 417.028 5.79 416.274 6.37C415.539 6.93067 414.998 7.68467 414.65 8.632C414.302 9.57933 414.128 10.633 414.128 11.793C414.128 13.1657 414.35 14.4223 414.795 15.563C415.259 16.6843 415.916 17.5833 416.767 18.26C417.637 18.9367 418.681 19.275 419.899 19.275ZM444.356 20.232C444.066 19.7873 443.747 19.3427 443.399 18.898C443.071 18.4533 442.597 17.912 441.978 17.274L434.061 8.98H434.003V17.1C434.003 17.8153 434.177 18.3567 434.525 18.724C434.893 19.0913 435.647 19.2943 436.787 19.333V20H430.958V19.333C431.596 19.2943 432.041 19.0913 432.292 18.724C432.563 18.3567 432.698 17.8153 432.698 17.1V7.675C432.698 6.921 432.486 6.37 432.06 6.022C431.654 5.674 431.045 5.48067 430.233 5.442V4.775H433.887C434.177 5.25833 434.487 5.72233 434.815 6.167C435.144 6.59233 435.521 7.02733 435.946 7.472L443.95 15.795H444.008V7.675C444.008 6.95967 443.844 6.41833 443.515 6.051C443.206 5.68367 442.549 5.48067 441.543 5.442V4.775H447.082V5.442C446.444 5.48067 445.99 5.68367 445.719 6.051C445.468 6.41833 445.342 6.95967 445.342 7.675V17.1C445.342 17.6413 445.342 18.1633 445.342 18.666C445.362 19.1493 445.381 19.6713 445.4 20.232H444.356ZM454.739 20.232C454.623 19.7293 454.507 19.304 454.391 18.956C454.275 18.608 454.139 18.1923 453.985 17.709L450.331 7.675C450.099 6.979 449.886 6.486 449.693 6.196C449.499 5.88667 449.296 5.69333 449.084 5.616C448.89 5.51933 448.639 5.46133 448.33 5.442V4.775H453.985V5.442C453.482 5.46133 453.115 5.529 452.883 5.645C452.67 5.74167 452.573 5.94467 452.593 6.254C452.612 6.544 452.728 7.01767 452.941 7.675L455.957 16.346H456.015L459.263 7.675C459.553 6.94033 459.572 6.399 459.321 6.051C459.069 5.68367 458.46 5.48067 457.494 5.442V4.775H462.511V5.442C462.143 5.48067 461.805 5.674 461.496 6.022C461.206 6.35067 460.916 6.90167 460.626 7.675L456.798 17.709C456.604 18.2117 456.459 18.637 456.363 18.985C456.266 19.3137 456.16 19.7293 456.044 20.232H454.739ZM464.545 20V19.333C464.97 19.3137 465.309 19.2557 465.56 19.159C465.811 19.0623 465.995 18.8593 466.111 18.55C466.227 18.2407 466.285 17.7573 466.285 17.1V7.675C466.285 6.99833 466.217 6.515 466.082 6.225C465.947 5.91567 465.705 5.71267 465.357 5.616C465.009 5.51933 464.497 5.46133 463.82 5.442V4.775H475.507V8.284H474.84C474.821 7.74267 474.724 7.298 474.55 6.95C474.376 6.58267 474.057 6.30233 473.593 6.109C473.148 5.91567 472.481 5.819 471.592 5.819H469.91C469.504 5.819 469.185 5.91567 468.953 6.109C468.74 6.30233 468.634 6.82433 468.634 7.675V11.358C468.789 11.242 468.972 11.1647 469.185 11.126C469.417 11.0873 469.688 11.068 469.997 11.068H472.404C472.965 11.068 473.39 10.952 473.68 10.72C473.989 10.488 474.154 10.053 474.173 9.415H474.84V13.765H474.173C474.154 13.127 474.018 12.692 473.767 12.46C473.535 12.228 473.081 12.112 472.404 12.112H470.055C469.533 12.112 469.166 12.199 468.953 12.373C468.74 12.547 468.634 12.8853 468.634 13.388V17.1C468.634 17.9313 468.779 18.4533 469.069 18.666C469.378 18.8593 469.968 18.956 470.838 18.956H472.897C474.154 18.956 475.043 18.6177 475.565 17.941C476.087 17.2643 476.387 16.4523 476.464 15.505H477.131L476.899 20H464.545ZM493.607 20.174C492.815 20.174 492.167 20.0677 491.664 19.855C491.162 19.6423 490.736 19.362 490.388 19.014C490.06 18.666 489.741 18.289 489.431 17.883L485.806 13.156C485.594 12.866 485.41 12.6727 485.255 12.576C485.12 12.4793 484.946 12.4213 484.733 12.402V11.532C485.913 11.6287 486.86 11.5417 487.575 11.271C488.31 11.0003 488.842 10.604 489.17 10.082C489.499 9.54067 489.663 8.951 489.663 8.313C489.663 7.36567 489.364 6.689 488.764 6.283C488.165 5.877 487.363 5.674 486.357 5.674C485.603 5.674 485.043 5.79 484.675 6.022C484.327 6.23467 484.153 6.78567 484.153 7.675V17.1C484.153 17.7573 484.221 18.2407 484.356 18.55C484.492 18.8593 484.733 19.0623 485.081 19.159C485.449 19.2557 485.961 19.3137 486.618 19.333V20H480.064V19.333C480.49 19.3137 480.828 19.2557 481.079 19.159C481.331 19.0623 481.514 18.8593 481.63 18.55C481.746 18.2407 481.804 17.7573 481.804 17.1V7.675C481.804 6.99833 481.737 6.515 481.601 6.225C481.466 5.91567 481.224 5.71267 480.876 5.616C480.528 5.51933 480.016 5.46133 479.339 5.442V4.775H481.804C483.003 4.775 483.95 4.75567 484.646 4.717C485.342 4.659 485.98 4.63 486.56 4.63C488.629 4.63 490.089 4.96833 490.939 5.645C491.79 6.32167 492.215 7.17233 492.215 8.197C492.215 9.08633 491.887 9.89833 491.229 10.633C490.591 11.3677 489.538 11.8897 488.068 12.199V12.257L491.693 17.013C492.215 17.6897 492.641 18.1923 492.969 18.521C493.317 18.8497 493.646 19.072 493.955 19.188C494.284 19.2847 494.661 19.333 495.086 19.333V20C494.835 20.0773 494.584 20.1257 494.332 20.145C494.081 20.1643 493.839 20.174 493.607 20.174ZM504.005 20.435C502.632 20.435 501.443 20.2127 500.438 19.768C499.452 19.304 498.64 18.695 498.002 17.941C497.383 17.187 496.919 16.346 496.61 15.418C496.32 14.49 496.175 13.5523 496.175 12.605C496.175 11.0583 496.532 9.66633 497.248 8.429C497.982 7.17233 498.997 6.17667 500.293 5.442C501.607 4.70733 503.144 4.34 504.904 4.34C505.87 4.34 506.808 4.44633 507.717 4.659C508.645 4.87167 509.437 5.123 510.095 5.413V9.154H509.428C509.234 7.878 508.664 6.95 507.717 6.37C506.789 5.79 505.716 5.5 504.498 5.5C502.68 5.5 501.269 6.08 500.264 7.24C499.278 8.38067 498.785 9.98533 498.785 12.054C498.785 12.924 498.881 13.794 499.075 14.664C499.268 15.5147 499.577 16.2977 500.003 17.013C500.447 17.709 501.018 18.2697 501.714 18.695C502.41 19.1203 503.26 19.333 504.266 19.333C505.29 19.333 506.151 19.1493 506.847 18.782C507.543 18.3953 507.987 17.9023 508.181 17.303C508.239 17.1483 508.297 16.926 508.355 16.636C508.413 16.346 508.442 15.9593 508.442 15.476C508.442 14.9347 508.374 14.5383 508.239 14.287C508.123 14.0163 507.9 13.8423 507.572 13.765C507.243 13.6683 506.75 13.6103 506.093 13.591V12.924H511.545V13.591C511.139 13.6103 510.868 13.736 510.733 13.968C510.617 14.1807 510.559 14.5093 510.559 14.954V15.476C510.559 15.7853 510.568 16.085 510.588 16.375C510.607 16.665 510.675 17.0613 510.791 17.564C510.423 17.97 509.95 18.3953 509.37 18.84C508.79 19.2847 508.065 19.6617 507.195 19.971C506.325 20.2803 505.261 20.435 504.005 20.435ZM514.757 20V19.333C515.182 19.3137 515.52 19.2557 515.772 19.159C516.023 19.0623 516.207 18.8593 516.323 18.55C516.439 18.2407 516.497 17.7573 516.497 17.1V7.675C516.497 6.99833 516.429 6.515 516.294 6.225C516.158 5.91567 515.917 5.71267 515.569 5.616C515.221 5.51933 514.708 5.46133 514.032 5.442V4.775H525.719V8.284H525.052C525.032 7.74267 524.936 7.298 524.762 6.95C524.588 6.58267 524.269 6.30233 523.805 6.109C523.36 5.91567 522.693 5.819 521.804 5.819H520.122C519.716 5.819 519.397 5.91567 519.165 6.109C518.952 6.30233 518.846 6.82433 518.846 7.675V11.358C519 11.242 519.184 11.1647 519.397 11.126C519.629 11.0873 519.899 11.068 520.209 11.068H522.616C523.176 11.068 523.602 10.952 523.892 10.72C524.201 10.488 524.365 10.053 524.385 9.415H525.052V13.765H524.385C524.365 13.127 524.23 12.692 523.979 12.46C523.747 12.228 523.292 12.112 522.616 12.112H520.267C519.745 12.112 519.377 12.199 519.165 12.373C518.952 12.547 518.846 12.8853 518.846 13.388V17.1C518.846 17.9313 518.991 18.4533 519.281 18.666C519.59 18.8593 520.18 18.956 521.05 18.956H523.109C524.365 18.956 525.255 18.6177 525.777 17.941C526.299 17.2643 526.598 16.4523 526.676 15.505H527.343L527.111 20H514.757ZM543.732 20.232C543.442 19.7873 543.123 19.3427 542.775 18.898C542.447 18.4533 541.973 17.912 541.354 17.274L533.437 8.98H533.379V17.1C533.379 17.8153 533.553 18.3567 533.901 18.724C534.269 19.0913 535.023 19.2943 536.163 19.333V20H530.334V19.333C530.972 19.2943 531.417 19.0913 531.668 18.724C531.939 18.3567 532.074 17.8153 532.074 17.1V7.675C532.074 6.921 531.862 6.37 531.436 6.022C531.03 5.674 530.421 5.48067 529.609 5.442V4.775H533.263C533.553 5.25833 533.863 5.72233 534.191 6.167C534.52 6.59233 534.897 7.02733 535.322 7.472L543.326 15.795H543.384V7.675C543.384 6.95967 543.22 6.41833 542.891 6.051C542.582 5.68367 541.925 5.48067 540.919 5.442V4.775H546.458V5.442C545.82 5.48067 545.366 5.68367 545.095 6.051C544.844 6.41833 544.718 6.95967 544.718 7.675V17.1C544.718 17.6413 544.718 18.1633 544.718 18.666C544.738 19.1493 544.757 19.6713 544.776 20.232H543.732ZM557.508 20.435C556.116 20.435 554.907 20.203 553.883 19.739C552.858 19.275 552.017 18.666 551.36 17.912C550.702 17.1387 550.209 16.288 549.881 15.36C549.571 14.4127 549.417 13.4653 549.417 12.518C549.417 11.0293 549.774 9.66633 550.49 8.429C551.224 7.19167 552.249 6.20567 553.564 5.471C554.878 4.717 556.415 4.34 558.175 4.34C559.141 4.34 560.079 4.44633 560.988 4.659C561.896 4.87167 562.679 5.123 563.337 5.413V9.154H562.67C562.476 7.878 561.906 6.95 560.959 6.37C560.031 5.79 558.958 5.5 557.74 5.5C555.922 5.5 554.511 6.08 553.506 7.24C552.52 8.38067 552.027 9.94667 552.027 11.938C552.027 12.8273 552.133 13.707 552.346 14.577C552.558 15.447 552.887 16.2397 553.332 16.955C553.796 17.651 554.376 18.2117 555.072 18.637C555.787 19.0623 556.638 19.275 557.624 19.275C558.552 19.275 559.412 19.0817 560.205 18.695C560.997 18.3083 561.664 17.7573 562.206 17.042C562.766 16.3267 563.134 15.476 563.308 14.49H563.975L563.801 17.796C563.201 18.5887 562.351 19.2267 561.249 19.71C560.166 20.1933 558.919 20.435 557.508 20.435ZM567.093 20V19.333C567.518 19.3137 567.856 19.2557 568.108 19.159C568.359 19.0623 568.543 18.8593 568.659 18.55C568.775 18.2407 568.833 17.7573 568.833 17.1V7.675C568.833 6.99833 568.765 6.515 568.63 6.225C568.494 5.91567 568.253 5.71267 567.905 5.616C567.557 5.51933 567.044 5.46133 566.368 5.442V4.775H578.055V8.284H577.388C577.368 7.74267 577.272 7.298 577.098 6.95C576.924 6.58267 576.605 6.30233 576.141 6.109C575.696 5.91567 575.029 5.819 574.14 5.819H572.458C572.052 5.819 571.733 5.91567 571.501 6.109C571.288 6.30233 571.182 6.82433 571.182 7.675V11.358C571.336 11.242 571.52 11.1647 571.733 11.126C571.965 11.0873 572.235 11.068 572.545 11.068H574.952C575.512 11.068 575.938 10.952 576.228 10.72C576.537 10.488 576.701 10.053 576.721 9.415H577.388V13.765H576.721C576.701 13.127 576.566 12.692 576.315 12.46C576.083 12.228 575.628 12.112 574.952 12.112H572.603C572.081 12.112 571.713 12.199 571.501 12.373C571.288 12.547 571.182 12.8853 571.182 13.388V17.1C571.182 17.9313 571.327 18.4533 571.617 18.666C571.926 18.8593 572.516 18.956 573.386 18.956H575.445C576.701 18.956 577.591 18.6177 578.113 17.941C578.635 17.2643 578.934 16.4523 579.012 15.505H579.679L579.447 20H567.093Z" fill="white"/>
</svg>
