<svg width="26" height="26" viewBox="0 0 26 26" fill="none" xmlns="http://www.w3.org/2000/svg">
<path d="M13 0.25C10.4783 0.25 8.01321 0.997774 5.91648 2.39876C3.81976 3.79975 2.18556 5.79103 1.22054 8.12079C0.255524 10.4505 0.00303191 13.0141 0.494993 15.4874C0.986955 17.9607 2.20127 20.2325 3.98439 22.0156C5.76751 23.7987 8.03935 25.0131 10.5126 25.505C12.9859 25.997 15.5495 25.7445 17.8792 24.7795C20.209 23.8144 22.2003 22.1802 23.6012 20.0835C25.0022 17.9868 25.75 15.5217 25.75 13C25.746 9.61971 24.4015 6.379 22.0112 3.98877C19.621 1.59854 16.3803 0.25397 13 0.25ZM13.75 24.225V15.75H17C17.1989 15.75 17.3897 15.671 17.5303 15.5303C17.671 15.3897 17.75 15.1989 17.75 15C17.75 14.8011 17.671 14.6103 17.5303 14.4697C17.3897 14.329 17.1989 14.25 17 14.25H13.75V11C13.75 10.4033 13.9871 9.83097 14.409 9.40901C14.831 8.98705 15.4033 8.75 16 8.75H18C18.1989 8.75 18.3897 8.67098 18.5303 8.53033C18.671 8.38968 18.75 8.19891 18.75 8C18.75 7.80109 18.671 7.61032 18.5303 7.46967C18.3897 7.32902 18.1989 7.25 18 7.25H16C15.0054 7.25 14.0516 7.64509 13.3484 8.34835C12.6451 9.05161 12.25 10.0054 12.25 11V14.25H9.00001C8.80109 14.25 8.61033 14.329 8.46968 14.4697C8.32902 14.6103 8.25001 14.8011 8.25001 15C8.25001 15.1989 8.32902 15.3897 8.46968 15.5303C8.61033 15.671 8.80109 15.75 9.00001 15.75H12.25V24.225C9.33778 24.0304 6.61517 22.7116 4.65713 20.5471C2.6991 18.3827 1.65892 15.5419 1.75626 12.6248C1.85361 9.70772 3.08086 6.94265 5.17884 4.91351C7.27682 2.88437 10.0813 1.75003 13 1.75003C15.9187 1.75003 18.7232 2.88437 20.8212 4.91351C22.9192 6.94265 24.1464 9.70772 24.2437 12.6248C24.3411 15.5419 23.3009 18.3827 21.3429 20.5471C19.3848 22.7116 16.6622 24.0304 13.75 24.225Z" fill="white"/>
</svg>
