<svg width="13" height="38" viewBox="0 0 13 38" fill="none" xmlns="http://www.w3.org/2000/svg">
<path d="M0.863165 7.78975C2.02917 7.57775 3.00083 7.27742 3.77817 6.88876C4.5555 6.50009 5.1915 6.02309 5.68617 5.45775C6.21617 4.89242 6.6225 4.27409 6.90517 3.60275C7.18783 2.93142 7.4175 2.20709 7.59417 1.42975L12.7352 0.899753C12.6292 2.03042 12.5408 3.19642 12.4702 4.39776C12.4348 5.56376 12.3995 6.87109 12.3642 8.31976C12.3642 9.73309 12.3465 11.3231 12.3112 13.0898C12.3112 14.8564 12.3112 16.8704 12.3112 19.1318C12.3112 21.2518 12.3112 23.1774 12.3112 24.9088C12.3112 26.6048 12.3112 28.1948 12.3112 29.6788C12.3465 31.1628 12.3642 32.5761 12.3642 33.9188C12.3995 35.2614 12.4348 36.6218 12.4702 37.9998L5.58017 37.9998C5.68617 34.9964 5.7745 32.0108 5.84517 29.0428C5.95117 26.0394 6.00417 23.0184 6.00417 19.9798C6.00417 17.1531 5.95117 14.2734 5.84517 11.3408L1.23417 11.1288L0.863165 7.78975Z" fill="white"/>
</svg>
