<svg width="22" height="39" viewBox="0 0 22 39" fill="none" xmlns="http://www.w3.org/2000/svg">
<path d="M11.0695 18.7608C12.0942 17.1001 12.9775 15.4394 13.7195 13.7788C14.4968 12.1181 14.8855 10.5458 14.8855 9.06176C14.8855 7.75442 14.5498 6.74742 13.8785 6.04075C13.2425 5.29875 12.3592 4.92776 11.2285 4.92776C9.77984 4.92776 8.66684 5.52842 7.88951 6.72975C7.14751 7.93109 6.77651 9.83909 6.77651 12.4538L1.05251 12.8248C1.05251 10.1748 1.37051 8.03709 2.00651 6.41176C2.67784 4.78642 3.52584 3.51442 4.55051 2.59575C5.57518 1.67709 6.70584 1.05876 7.94251 0.740755C9.21451 0.422755 10.4335 0.263755 11.5995 0.263755C13.4368 0.263755 14.9738 0.546421 16.2105 1.11175C17.4472 1.64175 18.4365 2.36609 19.1785 3.28475C19.9558 4.16809 20.5035 5.17509 20.8215 6.30575C21.1395 7.40109 21.2985 8.49642 21.2985 9.59176C21.2985 11.2524 20.9805 12.8248 20.3445 14.3088C19.7438 15.7928 18.8782 17.4534 17.7475 19.2908C16.6875 20.9868 15.4332 22.9124 13.9845 25.0678C12.5358 27.2231 11.0165 29.7671 9.42651 32.6998C13.4898 32.6291 17.5355 32.5231 21.5635 32.3818L21.0335 38.3708C20.6448 38.3001 19.8852 38.2294 18.7545 38.1588C17.6592 38.1234 16.3872 38.0881 14.9385 38.0528C13.4898 38.0528 11.9705 38.0351 10.3805 37.9998C8.82584 37.9998 7.39484 37.9998 6.08751 37.9998L0.575509 37.9998L-0.00749113 34.3958C0.169176 34.1484 0.646176 33.5124 1.42351 32.4878C2.23618 31.4278 3.17251 30.1734 4.23251 28.7248C5.32784 27.2408 6.47618 25.6331 7.67751 23.9018C8.91418 22.1351 10.0448 20.4214 11.0695 18.7608Z" fill="white"/>
</svg>
