<svg width="28" height="22" viewBox="0 0 28 22" fill="none" xmlns="http://www.w3.org/2000/svg">
<path d="M18.4163 10.375L12.4163 6.37502C12.3032 6.29962 12.1718 6.25633 12.0361 6.24978C11.9004 6.24324 11.7655 6.27368 11.6457 6.33785C11.526 6.40203 11.4259 6.49753 11.3562 6.61416C11.2865 6.73079 11.2498 6.86416 11.25 7.00002V15C11.2498 15.1359 11.2865 15.2693 11.3562 15.3859C11.4259 15.5025 11.526 15.598 11.6457 15.6622C11.7655 15.7264 11.9004 15.7568 12.0361 15.7503C12.1718 15.7437 12.3032 15.7004 12.4163 15.625L18.4163 11.625C18.5194 11.5566 18.604 11.4637 18.6625 11.3547C18.721 11.2456 18.7517 11.1238 18.7517 11C18.7517 10.8763 18.721 10.7544 18.6625 10.6454C18.604 10.5363 18.5194 10.4434 18.4163 10.375ZM12.75 13.5988V8.40127L16.6475 11L12.75 13.5988ZM27.05 3.75003C26.9415 3.3284 26.7344 2.93857 26.4458 2.61261C26.1572 2.28664 25.7954 2.03384 25.39 1.87502C21.125 0.223775 14.2837 0.250025 14 0.250025C13.7163 0.250025 6.875 0.223775 2.605 1.87502C2.20057 2.03449 1.83971 2.28757 1.55202 2.6135C1.26434 2.93943 1.05802 3.32892 0.95 3.75003C0.63125 4.98628 0.25 7.25002 0.25 11C0.25 14.75 0.63125 17.0138 0.95 18.25C1.05852 18.6716 1.2656 19.0615 1.55419 19.3874C1.84278 19.7134 2.20464 19.9662 2.61 20.125C6.875 21.7763 13.715 21.75 14 21.75H14.0888C14.9525 21.75 21.3388 21.695 25.395 20.125C25.8004 19.9662 26.1622 19.7134 26.4508 19.3874C26.7394 19.0615 26.9465 18.6716 27.055 18.25C27.3738 17.0163 27.755 14.7588 27.755 11C27.755 7.24127 27.375 4.98628 27.05 3.75003ZM25.5975 17.875C25.5494 18.0672 25.4563 18.2451 25.3259 18.3942C25.1955 18.5433 25.0315 18.6592 24.8475 18.7325C20.8475 20.2738 14.0725 20.25 14 20.25C13.9275 20.25 7.16125 20.275 3.15625 18.7288C2.97224 18.6555 2.80828 18.5395 2.67788 18.3904C2.54749 18.2413 2.45439 18.0634 2.40625 17.8713C2.105 16.7225 1.75 14.5975 1.75 11C1.75 7.40252 2.105 5.27752 2.4025 4.12503C2.45064 3.9329 2.54374 3.75496 2.67413 3.60587C2.80453 3.45678 2.96849 3.34081 3.1525 3.26752C7.0075 1.78252 13.4412 1.75002 13.97 1.75002H14C14.0675 1.75002 20.8387 1.72502 24.8438 3.27127C25.0278 3.34456 25.1917 3.46053 25.3221 3.60962C25.4525 3.75871 25.5456 3.93665 25.5938 4.12877C25.8913 5.27752 26.2463 7.40252 26.2463 11.0038C26.2463 14.605 25.895 16.7225 25.5975 17.875Z" fill="white"/>
</svg>
