<svg width="24" height="39" viewBox="0 0 24 39" fill="none" xmlns="http://www.w3.org/2000/svg">
<path d="M11.6629 34.2898C13.5002 34.2898 14.7546 33.6891 15.4259 32.4878C16.0972 31.2864 16.4329 29.6611 16.4329 27.6118C16.4329 26.2691 16.2916 25.1738 16.0089 24.3258C15.7616 23.4424 15.3376 22.7534 14.7369 22.2588C14.1716 21.7641 13.3942 21.4284 12.4049 21.2518C11.4509 21.0751 10.2849 20.9868 8.9069 20.9868L8.3769 16.6938C9.89623 16.6938 11.1152 16.5701 12.0339 16.3228C12.9879 16.0401 13.7122 15.6514 14.2069 15.1568C14.7369 14.6621 15.0726 14.0614 15.2139 13.3548C15.3906 12.6481 15.4789 11.8531 15.4789 10.9698C15.4789 9.09709 15.1786 7.61309 14.5779 6.51775C14.0126 5.38709 13.0056 4.82175 11.5569 4.82175C10.1082 4.82175 9.04823 5.35175 8.3769 6.41176C7.70557 7.47175 7.3699 8.81442 7.3699 10.4398L1.3809 11.0758C1.3809 9.06176 1.6989 7.38342 2.3349 6.04075C2.9709 4.66275 3.80123 3.54976 4.8259 2.70176C5.8859 1.85375 7.0519 1.25309 8.3239 0.899753C9.5959 0.511087 10.8679 0.316755 12.1399 0.316755C13.8006 0.316755 15.2492 0.599421 16.4859 1.16475C17.7226 1.69475 18.7472 2.41909 19.5599 3.33775C20.3726 4.25642 20.9732 5.31642 21.3619 6.51775C21.7859 7.68375 21.9979 8.88509 21.9979 10.1218C21.9979 11.0758 21.8742 12.0121 21.6269 12.9308C21.4149 13.8494 21.0616 14.6974 20.5669 15.4748C20.1076 16.2521 19.5069 16.9411 18.7649 17.5418C18.0582 18.1071 17.2102 18.5488 16.2209 18.8668C18.7296 19.2201 20.5492 20.2271 21.6799 21.8878C22.8106 23.5484 23.3759 25.5978 23.3759 28.0358C23.3759 29.8378 23.0932 31.4101 22.5279 32.7528C21.9626 34.0601 21.1499 35.1554 20.0899 36.0388C19.0652 36.9221 17.8109 37.5758 16.3269 37.9998C14.8782 38.4238 13.2352 38.6358 11.3979 38.6358C10.1966 38.6358 8.9599 38.5121 7.6879 38.2648C6.4159 38.0174 5.2499 37.4874 4.1899 36.6748C3.16523 35.8621 2.31723 34.6961 1.6459 33.1768C0.974566 31.6574 0.638899 29.6434 0.638899 27.1348L6.7339 26.4458C6.7339 29.2724 7.12257 31.2864 7.8999 32.4878C8.71257 33.6891 9.9669 34.2898 11.6629 34.2898Z" fill="white"/>
</svg>
