<svg width="26" height="26" viewBox="0 0 26 26" fill="none" xmlns="http://www.w3.org/2000/svg">
<path d="M13 7.25C11.8628 7.25 10.7511 7.58723 9.80547 8.21905C8.85989 8.85087 8.1229 9.74889 7.68769 10.7996C7.25249 11.8502 7.13862 13.0064 7.36049 14.1218C7.58235 15.2372 8.12998 16.2617 8.93414 17.0659C9.73829 17.87 10.7628 18.4177 11.8782 18.6395C12.9936 18.8614 14.1498 18.7475 15.2004 18.3123C16.2511 17.8771 17.1491 17.1401 17.781 16.1945C18.4128 15.2489 18.75 14.1372 18.75 13C18.748 11.4756 18.1416 10.0142 17.0637 8.93633C15.9858 7.85842 14.5244 7.25198 13 7.25ZM13 17.25C12.1594 17.25 11.3377 17.0007 10.6388 16.5337C9.93992 16.0668 9.39518 15.403 9.07351 14.6264C8.75184 13.8498 8.66768 12.9953 8.83166 12.1709C8.99565 11.3464 9.40042 10.5892 9.9948 9.9948C10.5892 9.40042 11.3464 8.99565 12.1709 8.83166C12.9953 8.66768 13.8498 8.75184 14.6264 9.07351C15.403 9.39518 16.0668 9.93992 16.5337 10.6388C17.0007 11.3377 17.25 12.1594 17.25 13C17.25 14.1272 16.8022 15.2082 16.0052 16.0052C15.2082 16.8022 14.1272 17.25 13 17.25ZM19 0.25H7C5.2104 0.251985 3.49466 0.963781 2.22922 2.22922C0.963781 3.49466 0.251985 5.2104 0.25 7V19C0.251985 20.7896 0.963781 22.5053 2.22922 23.7708C3.49466 25.0362 5.2104 25.748 7 25.75H19C20.7896 25.748 22.5053 25.0362 23.7708 23.7708C25.0362 22.5053 25.748 20.7896 25.75 19V7C25.748 5.2104 25.0362 3.49466 23.7708 2.22922C22.5053 0.963781 20.7896 0.251985 19 0.25ZM24.25 19C24.25 20.3924 23.6969 21.7277 22.7123 22.7123C21.7277 23.6969 20.3924 24.25 19 24.25H7C5.60761 24.25 4.27225 23.6969 3.28769 22.7123C2.30312 21.7277 1.75 20.3924 1.75 19V7C1.75 5.60761 2.30312 4.27225 3.28769 3.28769C4.27225 2.30312 5.60761 1.75 7 1.75H19C20.3924 1.75 21.7277 2.30312 22.7123 3.28769C23.6969 4.27225 24.25 5.60761 24.25 7V19ZM20.75 6.5C20.75 6.74723 20.6767 6.9889 20.5393 7.19446C20.402 7.40002 20.2068 7.56024 19.9784 7.65485C19.7499 7.74946 19.4986 7.77421 19.2561 7.72598C19.0137 7.67775 18.7909 7.5587 18.6161 7.38388C18.4413 7.20907 18.3223 6.98634 18.274 6.74386C18.2258 6.50139 18.2505 6.25005 18.3451 6.02165C18.4398 5.79324 18.6 5.59801 18.8055 5.46066C19.0111 5.32331 19.2528 5.25 19.5 5.25C19.8315 5.25 20.1495 5.3817 20.3839 5.61612C20.6183 5.85054 20.75 6.16848 20.75 6.5Z" fill="white"/>
</svg>
